# xmcd
#
# Track frame offsets: 
#        150
#        11976
#        26314
#        42160
#        53866
#        71514
#        82995
#        95778
#        109170
#        120386
#        134758
#        149174
#
# Disc length: 2197 seconds
#
# Revision: 2
# Processed by: cddbd v1.5.2PL0 Copyright (c) Steve Scherf et al.
# Submitted via: ExactAudioCopy v0.95b3
#
DISCID=ac08930c
DTITLE=Willie and the Poor Boys - Willie and the Poor Boys
DYEAR=1985
DGENRE=Rock and Roll
TTITLE0=Baby Please Don't Go
TTITLE1=Can You Hear Me
TTITLE2=These Arms of Mine
TTITLE3=Revenue Man (White Lightning)
TTITLE4=You Never Can Tell
TTITLE5=Slippin' and Slidin'
TTITLE6=Saturday Night
TTITLE7=Let's Talk it Over
TTITLE8=All Night Long
TTITLE9=Chicken Shack Boogie
TTITLE10=Sugar Bee
TTITLE11=Poor Boy Boogie
EXTD=
EXTT0=
EXTT1=
EXTT2=
EXTT3=
EXTT4=
EXTT5=
EXTT6=
EXTT7=
EXTT8=
EXTT9=
EXTT10=
EXTT11=
PLAYORDER=
